<?xml version="1.0" encoding="UTF-8" standalone="no"?>
<svg
   class="svglite"
   width="705.36pt"
   height="318.96pt"
   viewBox="0 0 705.36 318.96"
   version="1.1"
   id="svg264"
   sodipodi:docname="SignatureCurves.svg"
   inkscape:version="1.2.2 (732a01da63, 2022-12-09)"
   xmlns:inkscape="http://www.inkscape.org/namespaces/inkscape"
   xmlns:sodipodi="http://sodipodi.sourceforge.net/DTD/sodipodi-0.dtd"
   xmlns="http://www.w3.org/2000/svg"
   xmlns:svg="http://www.w3.org/2000/svg">
  <sodipodi:namedview
     id="namedview266"
     pagecolor="#ffffff"
     bordercolor="#000000"
     borderopacity="0.25"
     inkscape:showpageshadow="2"
     inkscape:pageopacity="0.0"
     inkscape:pagecheckerboard="0"
     inkscape:deskcolor="#d1d1d1"
     inkscape:document-units="pt"
     showgrid="false"
     inkscape:zoom="0.9161396"
     inkscape:cx="586.15521"
     inkscape:cy="114.61135"
     inkscape:window-width="1366"
     inkscape:window-height="705"
     inkscape:window-x="-8"
     inkscape:window-y="-8"
     inkscape:window-maximized="1"
     inkscape:current-layer="svg264" />
  <defs
     id="defs4">
    <marker
       style="overflow:visible"
       id="marker1478"
       refX="0"
       refY="0"
       orient="auto-start-reverse"
       inkscape:stockid="Arrow2"
       markerWidth="7.6999998"
       markerHeight="5.5999999"
       viewBox="0 0 7.7 5.6"
       inkscape:isstock="true"
       inkscape:collect="always"
       preserveAspectRatio="xMidYMid">
      <path
         transform="scale(0.7)"
         d="M -2,-4 9,0 -2,4 c 2,-2.33 2,-5.66 0,-8 z"
         style="fill:context-stroke;fill-rule:evenodd;stroke:none"
         id="path1476" />
    </marker>
    <inkscape:path-effect
       effect="spiro"
       id="path-effect1462"
       is_visible="true"
       lpeversion="1" />
    <marker
       style="overflow:visible"
       id="Arrow2"
       refX="0"
       refY="0"
       orient="auto-start-reverse"
       inkscape:stockid="Arrow2"
       markerWidth="7.6999998"
       markerHeight="5.5999999"
       viewBox="0 0 7.7 5.6"
       inkscape:isstock="true"
       inkscape:collect="always"
       preserveAspectRatio="xMidYMid">
      <path
         transform="scale(0.7)"
         d="M -2,-4 9,0 -2,4 c 2,-2.33 2,-5.66 0,-8 z"
         style="fill:context-stroke;fill-rule:evenodd;stroke:none"
         id="arrow2L" />
    </marker>
    <inkscape:path-effect
       effect="spiro"
       id="path-effect1404"
       is_visible="true"
       lpeversion="1" />
    <marker
       style="overflow:visible"
       id="Arrow1L"
       refX="0"
       refY="0"
       orient="auto-start-reverse"
       inkscape:stockid="Arrow1L"
       markerWidth="8.75"
       markerHeight="5"
       viewBox="0 0 8.75 5"
       inkscape:isstock="true"
       inkscape:collect="always"
       preserveAspectRatio="xMidYMid">
      <path
         style="fill:context-stroke;fill-rule:evenodd;stroke:none"
         d="M 0,0 5,-5 -12.5,0 5,5 Z"
         id="arrow1L"
         transform="scale(-0.5)" />
    </marker>
    <inkscape:path-effect
       effect="spiro"
       id="path-effect605"
       is_visible="true"
       lpeversion="1" />
    <style
       type="text/css"
       id="style2"><![CDATA[
    .svglite line, .svglite polyline, .svglite polygon, .svglite path, .svglite rect, .svglite circle {
      fill: none;
      stroke: #000000;
      stroke-linecap: round;
      stroke-linejoin: round;
      stroke-miterlimit: 10.00;
    }
    .svglite text {
      white-space: pre;
    }
  ]]></style>
  </defs>
  <rect
     width="100%"
     height="100%"
     style="stroke: none; fill: #FFFFFF;"
     id="rect6" />
  <defs
     id="defs11">
    <clipPath
       id="cpMC4wMHw3MDUuMzZ8MC4wMHwzMTguOTY=">
      <rect
         x="0.00"
         y="0.00"
         width="705.36"
         height="318.96"
         id="rect8" />
    </clipPath>
  </defs>
  <g
     clip-path="url(#cpMC4wMHw3MDUuMzZ8MC4wMHwzMTguOTY=)"
     id="g15">
    <rect
       x="0.00"
       y="0.00"
       width="705.36"
       height="318.96"
       style="stroke-width: 1.07; stroke: #FFFFFF; fill: #FFFFFF;"
       id="rect13" />
  </g>
  <defs
     id="defs20">
    <clipPath
       id="cpMzYuMDd8Njk5Ljg4fDUuNDh8Mjg3LjQ2">
      <rect
         x="36.07"
         y="5.48"
         width="663.81"
         height="281.98"
         id="rect17" />
    </clipPath>
  </defs>
  <g
     clip-path="url(#cpMzYuMDd8Njk5Ljg4fDUuNDh8Mjg3LjQ2)"
     id="g158">
    <rect
       x="36.07"
       y="5.48"
       width="663.81"
       height="281.98"
       style="stroke-width: 1.07; stroke: none; fill: #FFFFFF;"
       id="rect22" />
    <polyline
       points="36.07,245.90 699.88,245.90 "
       style="stroke-width: 0.53; stroke: #EBEBEB; stroke-linecap: butt;"
       id="polyline24" />
    <polyline
       points="36.07,200.29 699.88,200.29 "
       style="stroke-width: 0.53; stroke: #EBEBEB; stroke-linecap: butt;"
       id="polyline26" />
    <polyline
       points="36.07,154.67 699.88,154.67 "
       style="stroke-width: 0.53; stroke: #EBEBEB; stroke-linecap: butt;"
       id="polyline28" />
    <polyline
       points="36.07,109.06 699.88,109.06 "
       style="stroke-width: 0.53; stroke: #EBEBEB; stroke-linecap: butt;"
       id="polyline30" />
    <polyline
       points="36.07,63.44 699.88,63.44 "
       style="stroke-width: 0.53; stroke: #EBEBEB; stroke-linecap: butt;"
       id="polyline32" />
    <polyline
       points="36.07,17.83 699.88,17.83 "
       style="stroke-width: 0.53; stroke: #EBEBEB; stroke-linecap: butt;"
       id="polyline34" />
    <polyline
       points="36.07,268.71 699.88,268.71 "
       style="stroke-width: 1.07; stroke: #EBEBEB; stroke-linecap: butt;"
       id="polyline36" />
    <polyline
       points="36.07,223.10 699.88,223.10 "
       style="stroke-width: 1.07; stroke: #EBEBEB; stroke-linecap: butt;"
       id="polyline38" />
    <polyline
       points="36.07,177.48 699.88,177.48 "
       style="stroke-width: 1.07; stroke: #EBEBEB; stroke-linecap: butt;"
       id="polyline40" />
    <polyline
       points="36.07,131.87 699.88,131.87 "
       style="stroke-width: 1.07; stroke: #EBEBEB; stroke-linecap: butt;"
       id="polyline42" />
    <polyline
       points="36.07,86.25 699.88,86.25 "
       style="stroke-width: 1.07; stroke: #EBEBEB; stroke-linecap: butt;"
       id="polyline44" />
    <polyline
       points="36.07,40.64 699.88,40.64 "
       style="stroke-width: 1.07; stroke: #EBEBEB; stroke-linecap: butt;"
       id="polyline46" />
    <polyline
       points="75.12,287.46 75.12,5.48 "
       style="stroke-width: 1.07; stroke: #EBEBEB; stroke-linecap: butt;"
       id="polyline48" />
    <polyline
       points="140.20,287.46 140.20,5.48 "
       style="stroke-width: 1.07; stroke: #EBEBEB; stroke-linecap: butt;"
       id="polyline50" />
    <polyline
       points="205.28,287.46 205.28,5.48 "
       style="stroke-width: 1.07; stroke: #EBEBEB; stroke-linecap: butt;"
       id="polyline52" />
    <polyline
       points="270.35,287.46 270.35,5.48 "
       style="stroke-width: 1.07; stroke: #EBEBEB; stroke-linecap: butt;"
       id="polyline54" />
    <polyline
       points="335.43,287.46 335.43,5.48 "
       style="stroke-width: 1.07; stroke: #EBEBEB; stroke-linecap: butt;"
       id="polyline56" />
    <polyline
       points="400.51,287.46 400.51,5.48 "
       style="stroke-width: 1.07; stroke: #EBEBEB; stroke-linecap: butt;"
       id="polyline58" />
    <polyline
       points="465.59,287.46 465.59,5.48 "
       style="stroke-width: 1.07; stroke: #EBEBEB; stroke-linecap: butt;"
       id="polyline60" />
    <polyline
       points="530.67,287.46 530.67,5.48 "
       style="stroke-width: 1.07; stroke: #EBEBEB; stroke-linecap: butt;"
       id="polyline62" />
    <polyline
       points="595.75,287.46 595.75,5.48 "
       style="stroke-width: 1.07; stroke: #EBEBEB; stroke-linecap: butt;"
       id="polyline64" />
    <polyline
       points="660.83,287.46 660.83,5.48 "
       style="stroke-width: 1.07; stroke: #EBEBEB; stroke-linecap: butt;"
       id="polyline66" />
    <polyline
       points="75.12,234.12 75.12,234.12 75.14,234.09 75.20,234.03 75.32,233.91 75.50,233.73 75.76,233.46 76.12,233.09 76.58,232.62 77.15,232.04 77.84,231.33 78.65,230.50 79.59,229.55 80.65,228.46 81.84,227.25 83.15,225.90 84.58,224.44 86.12,222.87 87.77,221.19 89.52,219.41 91.35,217.54 93.25,215.60 95.22,213.60 97.24,211.55 99.30,209.46 101.38,207.34 103.48,205.22 105.57,203.09 107.66,200.98 109.73,198.89 111.77,196.84 113.77,194.83 115.72,192.87 117.63,190.96 119.47,189.12 121.26,187.35 122.98,185.64 124.63,184.01 126.21,182.46 127.73,180.98 129.18,179.57 130.57,178.24 131.89,176.97 133.16,175.77 134.38,174.63 135.55,173.55 136.68,172.51 137.77,171.52 138.85,170.56 139.91,169.63 140.20,169.37 141.34,168.38 142.49,167.40 143.65,166.41 144.83,165.42 146.03,164.43 147.27,163.42 148.53,162.39 149.83,161.36 151.16,160.30 152.53,159.22 153.93,158.13 155.37,157.01 156.85,155.88 158.36,154.72 159.90,153.55 161.47,152.36 163.06,151.15 164.68,149.94 166.32,148.71 167.98,147.47 169.65,146.23 171.32,144.98 173.00,143.74 174.68,142.49 176.36,141.26 178.02,140.03 179.67,138.81 181.31,137.61 182.92,136.43 184.51,135.26 186.07,134.12 187.60,133.00 189.10,131.90 190.56,130.84 191.99,129.79 193.39,128.78 194.74,127.80 196.06,126.84 197.35,125.91 198.60,125.01 199.83,124.14 201.02,123.28 202.20,122.45 203.36,121.63 204.50,120.83 205.28,120.29 206.46,119.47 207.65,118.65 208.86,117.82 210.09,116.99 211.34,116.14 212.63,115.27 213.95,114.39 215.30,113.48 216.70,112.55 218.13,111.60 219.60,110.63 221.11,109.63 222.66,108.60 224.24,107.56 225.86,106.50 227.50,105.42 229.17,104.32 230.87,103.21 232.58,102.09 234.31,100.96 236.05,99.83 237.79,98.69 239.53,97.56 241.27,96.44 243.00,95.32 244.71,94.22 246.41,93.13 248.08,92.06 249.73,91.02 251.34,89.99 252.93,89.00 254.48,88.03 255.99,87.10 257.46,86.19 258.89,85.32 260.29,84.48 261.64,83.68 262.97,82.90 264.25,82.16 265.51,81.45 266.74,80.76 267.94,80.10 269.14,79.46 270.32,78.84 270.35,78.82 271.62,78.17 272.90,77.52 274.19,76.88 275.51,76.24 276.87,75.59 278.26,74.93 279.68,74.26 281.16,73.58 282.67,72.89 284.23,72.18 285.84,71.45 287.48,70.71 289.17,69.95 290.90,69.19 292.66,68.41 294.45,67.62 296.27,66.82 298.10,66.02 299.96,65.21 301.82,64.41 303.68,63.61 305.55,62.82 307.40,62.04 309.24,61.27 311.06,60.52 312.85,59.79 314.62,59.08 316.35,58.40 318.05,57.74 319.70,57.12 321.31,56.53 322.88,55.97 324.40,55.45 325.88,54.97 327.32,54.52 328.71,54.11 330.07,53.73 331.39,53.39 332.69,53.09 333.97,52.82 335.24,52.58 335.43,52.55 336.78,52.33 338.13,52.14 339.50,51.99 340.91,51.87 342.35,51.77 343.83,51.71 345.36,51.67 346.94,51.67 348.57,51.69 350.25,51.73 351.97,51.80 353.75,51.89 355.57,52.00 357.42,52.13 359.31,52.27 361.23,52.43 363.18,52.60 365.14,52.78 367.11,52.97 369.09,53.17 371.06,53.37 373.01,53.57 374.96,53.77 376.87,53.97 378.76,54.17 380.61,54.36 382.43,54.54 384.19,54.72 385.91,54.89 387.59,55.05 389.21,55.21 390.78,55.36 392.30,55.49 393.78,55.62 395.22,55.75 396.62,55.87 397.99,55.99 399.34,56.11 400.51,56.21 401.85,56.33 403.20,56.46 404.56,56.60 405.96,56.74 407.39,56.89 408.87,57.05 410.39,57.22 411.96,57.40 413.58,57.58 415.25,57.78 416.96,57.99 418.72,58.20 420.53,58.42 422.37,58.65 424.26,58.88 426.16,59.12 428.10,59.36 430.05,59.61 432.01,59.86 433.97,60.11 435.94,60.36 437.89,60.62 439.82,60.87 441.73,61.11 443.62,61.36 445.46,61.60 447.27,61.83 449.04,62.06 450.76,62.29 452.43,62.51 454.05,62.72 455.62,62.93 457.14,63.13 458.62,63.33 460.06,63.52 461.46,63.71 462.83,63.89 464.17,64.08 465.51,64.26 465.59,64.28 466.92,64.46 468.27,64.65 469.63,64.84 471.02,65.03 472.45,65.22 473.92,65.41 475.43,65.60 477.00,65.79 478.61,65.98 480.27,66.17 481.98,66.36 483.73,66.55 485.53,66.74 487.37,66.93 489.24,67.12 491.14,67.31 493.06,67.51 495.01,67.71 496.96,67.91 498.92,68.12 500.87,68.33 502.82,68.55 504.75,68.77 506.66,69.01 508.53,69.25 510.38,69.50 512.19,69.77 513.95,70.04 515.67,70.33 517.34,70.63 518.96,70.96 520.53,71.29 522.05,71.65 523.53,72.03 524.97,72.43 526.37,72.85 527.73,73.30 529.08,73.78 530.41,74.29 530.67,74.39 531.86,74.88 533.05,75.40 534.25,75.96 535.48,76.57 536.73,77.22 538.01,77.94 539.33,78.71 540.68,79.55 542.07,80.44 543.50,81.39 544.97,82.41 546.48,83.48 548.02,84.60 549.60,85.78 551.21,87.01 552.85,88.28 554.52,89.58 556.21,90.92 557.92,92.28 559.65,93.66 561.38,95.05 563.12,96.44 564.86,97.83 566.60,99.22 568.32,100.58 570.04,101.92 571.73,103.22 573.40,104.49 575.04,105.71 576.66,106.89 578.24,108.00 579.79,109.06 581.30,110.05 582.77,110.97 584.21,111.82 585.60,112.59 586.96,113.30 588.28,113.92 589.56,114.47 590.82,114.95 592.05,115.36 593.26,115.70 594.45,115.98 595.63,116.20 595.75,116.22 597.04,116.39 598.36,116.49 599.70,116.52 601.10,116.48 602.57,116.36 604.11,116.16 605.74,115.88 607.46,115.53 609.28,115.09 611.19,114.57 613.21,113.98 615.33,113.31 617.54,112.57 619.84,111.77 622.21,110.91 624.66,110.00 627.16,109.05 629.69,108.05 632.25,107.03 634.81,106.00 637.34,104.96 639.83,103.93 642.25,102.91 644.58,101.93 646.81,100.98 648.90,100.08 650.84,99.24 652.62,98.47 654.22,97.77 655.64,97.15 656.87,96.61 657.91,96.15 658.78,95.77 659.46,95.46 659.98,95.23 660.36,95.06 660.61,94.95 660.75,94.89 660.82,94.86 660.83,94.85 660.83,94.85 "
       style="stroke-width: 1.07; stroke: #F8766D; stroke-linecap: butt;"
       id="polyline68" />
    <polyline
       points="75.12,113.52 75.12,113.53 75.14,113.59 75.19,113.73 75.28,114.00 75.42,114.43 75.64,115.06 75.92,115.90 76.30,117.00 76.76,118.36 77.32,120.00 77.98,121.94 78.75,124.19 79.63,126.74 80.62,129.61 81.71,132.79 82.91,136.27 84.21,140.04 85.61,144.09 87.11,148.39 88.68,152.93 90.34,157.67 92.07,162.60 93.85,167.68 95.69,172.89 97.57,178.19 99.48,183.54 101.41,188.93 103.35,194.32 105.30,199.67 107.23,204.97 109.16,210.17 111.05,215.26 112.92,220.22 114.75,225.02 116.54,229.64 118.29,234.07 119.98,238.29 121.62,242.29 123.20,246.06 124.72,249.59 126.19,252.88 127.60,255.92 128.95,258.71 130.25,261.25 131.49,263.54 132.68,265.59 133.83,267.40 134.93,268.97 136.00,270.33 137.03,271.47 138.04,272.42 139.04,273.18 140.02,273.77 140.20,273.86 141.18,274.27 142.16,274.54 143.15,274.65 144.16,274.59 145.18,274.38 146.22,274.00 147.28,273.46 148.37,272.75 149.47,271.87 150.61,270.83 151.77,269.63 152.95,268.28 154.17,266.77 155.41,265.11 156.67,263.31 157.96,261.38 159.28,259.32 160.62,257.14 161.97,254.85 163.35,252.46 164.74,249.98 166.15,247.42 167.57,244.80 169.00,242.11 170.44,239.37 171.88,236.60 173.33,233.81 174.77,231.00 176.21,228.19 177.64,225.39 179.06,222.60 180.47,219.85 181.87,217.14 183.25,214.47 184.61,211.86 185.95,209.31 187.27,206.84 188.56,204.44 189.83,202.12 191.08,199.89 192.30,197.76 193.49,195.71 194.65,193.75 195.79,191.89 196.90,190.12 197.99,188.43 199.06,186.83 200.10,185.31 201.13,183.86 202.13,182.48 203.13,181.15 204.12,179.86 205.10,178.61 205.28,178.38 206.31,177.08 207.35,175.79 208.40,174.50 209.47,173.21 210.55,171.91 211.66,170.60 212.79,169.28 213.95,167.94 215.13,166.58 216.34,165.20 217.58,163.80 218.86,162.37 220.16,160.92 221.49,159.45 222.85,157.95 224.24,156.43 225.65,154.89 227.08,153.33 228.54,151.76 230.01,150.17 231.50,148.57 233.01,146.96 234.52,145.34 236.04,143.73 237.57,142.11 239.09,140.49 240.61,138.89 242.13,137.29 243.64,135.71 245.13,134.14 246.61,132.59 248.07,131.07 249.51,129.58 250.93,128.11 252.33,126.67 253.70,125.27 255.04,123.90 256.35,122.57 257.63,121.28 258.88,120.02 260.11,118.81 261.30,117.63 262.47,116.49 263.60,115.39 264.72,114.32 265.81,113.28 266.88,112.28 267.94,111.31 268.98,110.36 270.02,109.43 270.35,109.13 271.52,108.12 272.68,107.11 273.87,106.11 275.07,105.11 276.30,104.10 277.55,103.08 278.84,102.05 280.16,100.99 281.52,99.92 282.92,98.82 284.35,97.71 285.83,96.57 287.33,95.41 288.87,94.23 290.45,93.03 292.05,91.81 293.68,90.57 295.34,89.33 297.01,88.07 298.70,86.81 300.40,85.55 302.11,84.28 303.81,83.03 305.52,81.78 307.22,80.55 308.91,79.33 310.58,78.14 312.23,76.97 313.86,75.83 315.46,74.73 317.03,73.66 318.57,72.63 320.08,71.64 321.55,70.70 322.98,69.80 324.37,68.95 325.73,68.15 327.05,67.39 328.33,66.69 329.59,66.04 330.81,65.43 332.01,64.87 333.20,64.36 334.36,63.88 335.43,63.48 336.78,63.01 338.13,62.60 339.51,62.22 340.91,61.88 342.36,61.59 343.84,61.33 345.37,61.11 346.95,60.91 348.59,60.76 350.27,60.63 351.99,60.52 353.77,60.45 355.59,60.39 357.45,60.36 359.34,60.35 361.27,60.35 363.21,60.37 365.18,60.41 367.15,60.45 369.13,60.51 371.10,60.57 373.06,60.63 375.00,60.70 376.92,60.78 378.81,60.85 380.66,60.93 382.48,61.00 384.24,61.08 385.97,61.15 387.64,61.22 389.26,61.29 390.83,61.36 392.36,61.43 393.83,61.50 395.27,61.58 396.67,61.65 398.04,61.74 399.39,61.83 400.51,61.92 401.84,62.03 403.17,62.16 404.53,62.32 405.92,62.50 407.34,62.70 408.80,62.94 410.31,63.20 411.86,63.49 413.47,63.81 415.12,64.15 416.82,64.53 418.56,64.93 420.35,65.35 422.18,65.79 424.04,66.26 425.93,66.73 427.85,67.22 429.78,67.72 431.73,68.22 433.68,68.72 435.63,69.22 437.57,69.71 439.49,70.19 441.39,70.65 443.26,71.10 445.10,71.52 446.91,71.92 448.67,72.30 450.38,72.64 452.05,72.94 453.67,73.22 455.25,73.45 456.77,73.65 458.25,73.82 459.68,73.94 461.08,74.03 462.45,74.08 463.79,74.10 465.12,74.08 465.59,74.07 466.90,74.01 468.23,73.92 469.57,73.79 470.94,73.61 472.35,73.38 473.79,73.10 475.28,72.77 476.81,72.39 478.40,71.95 480.03,71.46 481.70,70.92 483.42,70.34 485.19,69.71 486.99,69.05 488.83,68.35 490.70,67.62 492.59,66.87 494.50,66.11 496.43,65.33 498.36,64.56 500.29,63.79 502.21,63.03 504.12,62.30 506.00,61.59 507.86,60.91 509.70,60.27 511.49,59.68 513.25,59.15 514.96,58.66 516.62,58.24 518.24,57.89 519.81,57.60 521.34,57.38 522.82,57.23 524.25,57.16 525.65,57.16 527.01,57.23 528.35,57.38 529.67,57.59 530.67,57.80 531.83,58.08 533.00,58.43 534.19,58.83 535.39,59.31 536.62,59.86 537.87,60.49 539.16,61.20 540.49,61.98 541.85,62.85 543.25,63.80 544.68,64.83 546.15,65.94 547.66,67.11 549.21,68.36 550.78,69.66 552.39,71.03 554.02,72.45 555.67,73.91 557.35,75.40 559.04,76.93 560.74,78.48 562.44,80.03 564.15,81.59 565.86,83.15 567.56,84.69 569.25,86.21 570.92,87.70 572.57,89.15 574.20,90.56 575.81,91.91 577.38,93.21 578.92,94.43 580.42,95.59 581.89,96.68 583.32,97.68 584.72,98.61 586.07,99.45 587.39,100.21 588.68,100.89 589.93,101.49 591.16,102.00 592.36,102.45 593.54,102.82 594.71,103.12 595.75,103.34 597.05,103.55 598.36,103.70 599.71,103.77 601.12,103.76 602.59,103.67 604.14,103.50 605.77,103.25 607.49,102.92 609.32,102.51 611.24,102.01 613.27,101.44 615.39,100.80 617.61,100.08 619.92,99.30 622.30,98.46 624.76,97.56 627.26,96.63 629.81,95.65 632.37,94.65 634.93,93.63 637.47,92.61 639.96,91.59 642.39,90.59 644.72,89.62 646.94,88.68 649.03,87.80 650.96,86.98 652.73,86.22 654.33,85.53 655.74,84.92 656.96,84.40 657.99,83.95 658.84,83.58 659.51,83.28 660.02,83.06 660.39,82.90 660.62,82.79 660.76,82.73 660.82,82.70 660.83,82.70 660.83,82.70 "
       style="stroke-width: 1.07; stroke: #7CAE00; stroke-linecap: butt;"
       id="polyline70" />
    <polyline
       points="75.12,40.84 75.12,40.85 75.14,40.87 75.19,40.93 75.29,41.04 75.45,41.22 75.69,41.48 76.00,41.83 76.41,42.29 76.92,42.85 77.53,43.54 78.26,44.34 79.09,45.28 80.05,46.34 81.12,47.54 82.30,48.86 83.60,50.30 85.00,51.87 86.50,53.55 88.10,55.34 89.79,57.22 91.55,59.19 93.38,61.24 95.27,63.35 97.20,65.52 99.17,67.72 101.16,69.96 103.17,72.21 105.18,74.47 107.18,76.72 109.17,78.96 111.13,81.17 113.06,83.34 114.95,85.48 116.79,87.57 118.59,89.60 120.32,91.58 122.00,93.49 123.62,95.34 125.18,97.13 126.68,98.85 128.11,100.51 129.49,102.10 130.80,103.64 132.07,105.11 133.27,106.54 134.43,107.91 135.55,109.25 136.64,110.55 137.69,111.82 138.72,113.08 139.73,114.33 140.20,114.90 141.18,116.11 142.16,117.35 143.15,118.61 144.16,119.91 145.18,121.26 146.22,122.66 147.28,124.11 148.37,125.63 149.47,127.22 150.61,128.87 151.77,130.59 152.95,132.38 154.17,134.24 155.41,136.17 156.67,138.17 157.96,140.23 159.28,142.35 160.62,144.53 161.97,146.75 163.35,149.02 164.74,151.33 166.15,153.67 167.57,156.04 169.00,158.42 170.44,160.81 171.88,163.20 173.33,165.58 174.77,167.95 176.21,170.29 177.64,172.60 179.06,174.86 180.47,177.08 181.87,179.24 183.25,181.33 184.61,183.34 185.95,185.28 187.27,187.13 188.56,188.89 189.83,190.54 191.08,192.10 192.30,193.54 193.49,194.87 194.65,196.09 195.79,197.18 196.90,198.16 197.99,199.02 199.06,199.75 200.10,200.37 201.13,200.86 202.13,201.24 203.13,201.50 204.12,201.65 205.10,201.70 205.28,201.70 206.26,201.62 207.24,201.44 208.23,201.15 209.24,200.74 210.26,200.21 211.30,199.56 212.36,198.78 213.45,197.88 214.55,196.85 215.69,195.70 216.85,194.42 218.03,193.02 219.25,191.50 220.49,189.87 221.75,188.13 223.04,186.29 224.36,184.34 225.70,182.30 227.05,180.18 228.43,177.98 229.82,175.71 231.23,173.38 232.65,170.99 234.08,168.56 235.52,166.10 236.96,163.61 238.40,161.10 239.85,158.59 241.29,156.08 242.72,153.58 244.14,151.09 245.55,148.64 246.95,146.22 248.33,143.85 249.69,141.53 251.03,139.26 252.35,137.06 253.64,134.92 254.91,132.86 256.16,130.87 257.38,128.96 258.57,127.13 259.73,125.39 260.87,123.72 261.98,122.14 263.07,120.63 264.14,119.21 265.18,117.85 266.21,116.56 267.21,115.32 268.21,114.14 269.20,113.01 270.18,111.91 270.35,111.71 271.47,110.49 272.59,109.29 273.72,108.09 274.87,106.91 276.04,105.72 277.24,104.53 278.47,103.33 279.73,102.11 281.02,100.88 282.34,99.63 283.70,98.37 285.10,97.09 286.52,95.78 287.99,94.46 289.48,93.12 291.00,91.77 292.54,90.40 294.11,89.01 295.70,87.62 297.31,86.22 298.93,84.82 300.56,83.41 302.20,82.01 303.84,80.62 305.48,79.24 307.11,77.87 308.72,76.51 310.33,75.18 311.92,73.88 313.49,72.60 315.03,71.36 316.54,70.15 318.03,68.98 319.49,67.85 320.91,66.77 322.30,65.73 323.65,64.73 324.97,63.79 326.26,62.89 327.51,62.04 328.74,61.23 329.93,60.48 331.10,59.77 332.25,59.11 333.38,58.49 334.49,57.91 335.43,57.44 336.77,56.83 338.12,56.26 339.48,55.73 340.88,55.24 342.32,54.78 343.79,54.36 345.31,53.97 346.88,53.60 348.50,53.26 350.17,52.94 351.88,52.65 353.65,52.37 355.45,52.11 357.30,51.87 359.18,51.65 361.09,51.44 363.02,51.24 364.97,51.05 366.93,50.88 368.90,50.71 370.86,50.56 372.81,50.41 374.75,50.27 376.66,50.14 378.54,50.02 380.39,49.91 382.20,49.81 383.96,49.71 385.68,49.62 387.35,49.55 388.97,49.48 390.54,49.42 392.07,49.37 393.55,49.34 394.98,49.32 396.38,49.32 397.75,49.33 399.10,49.37 400.43,49.42 400.51,49.42 401.83,49.50 403.16,49.61 404.51,49.74 405.89,49.91 407.30,50.11 408.75,50.35 410.25,50.62 411.79,50.92 413.38,51.27 415.02,51.65 416.71,52.06 418.44,52.50 420.22,52.97 422.03,53.47 423.88,53.99 425.76,54.53 427.66,55.08 429.59,55.65 431.52,56.22 433.46,56.80 435.40,57.38 437.32,57.95 439.24,58.51 441.13,59.06 443.00,59.59 444.84,60.10 446.64,60.59 448.39,61.05 450.11,61.48 451.77,61.88 453.39,62.24 454.97,62.57 456.49,62.87 457.97,63.13 459.40,63.35 460.80,63.54 462.17,63.70 463.50,63.82 464.83,63.92 465.59,63.96 466.93,64.02 468.28,64.05 469.65,64.05 471.04,64.02 472.48,63.95 473.96,63.85 475.48,63.70 477.05,63.52 478.67,63.30 480.34,63.05 482.05,62.76 483.82,62.44 485.62,62.09 487.47,61.72 489.35,61.32 491.26,60.91 493.20,60.48 495.15,60.04 497.11,59.60 499.08,59.15 501.04,58.72 502.99,58.29 504.93,57.88 506.84,57.49 508.72,57.12 510.57,56.78 512.38,56.48 514.15,56.21 515.87,55.98 517.54,55.80 519.16,55.66 520.73,55.57 522.26,55.53 523.73,55.54 525.17,55.60 526.57,55.71 527.94,55.87 529.29,56.07 530.62,56.33 530.67,56.34 531.89,56.62 533.12,56.94 534.37,57.31 535.64,57.74 536.94,58.23 538.27,58.79 539.63,59.41 541.04,60.10 542.49,60.86 543.98,61.69 545.51,62.58 547.08,63.53 548.69,64.54 550.33,65.61 552.01,66.73 553.72,67.89 555.46,69.09 557.22,70.32 558.99,71.58 560.78,72.85 562.57,74.13 564.37,75.41 566.16,76.68 567.95,77.94 569.72,79.17 571.47,80.37 573.20,81.54 574.90,82.65 576.57,83.72 578.21,84.73 579.81,85.68 581.36,86.55 582.88,87.36 584.36,88.10 585.79,88.75 587.19,89.33 588.55,89.84 589.87,90.26 591.16,90.61 592.42,90.89 593.66,91.09 594.88,91.24 595.75,91.30 597.02,91.34 598.30,91.32 599.61,91.23 600.97,91.06 602.40,90.81 603.90,90.48 605.47,90.07 607.14,89.57 608.90,88.99 610.75,88.33 612.70,87.59 614.74,86.76 616.87,85.86 619.09,84.89 621.39,83.85 623.76,82.76 626.19,81.61 628.65,80.43 631.15,79.21 633.65,77.97 636.13,76.73 638.59,75.49 640.99,74.26 643.32,73.07 645.56,71.91 647.68,70.81 649.67,69.77 651.50,68.81 653.18,67.92 654.69,67.12 656.02,66.42 657.17,65.80 658.15,65.29 658.95,64.86 659.58,64.52 660.06,64.26 660.41,64.07 660.63,63.95 660.76,63.88 660.82,63.85 660.83,63.84 660.83,63.84 "
       style="stroke-width: 1.07; stroke: #00BFC4; stroke-linecap: butt;"
       id="polyline72" />
    <polyline
       points="75.12,18.30 75.12,18.30 75.16,18.31 75.26,18.35 75.46,18.42 75.76,18.54 76.20,18.70 76.78,18.92 77.54,19.21 78.46,19.55 79.56,19.97 80.84,20.46 82.31,21.01 83.95,21.63 85.75,22.31 87.71,23.05 89.80,23.85 92.02,24.69 94.34,25.58 96.73,26.49 99.19,27.44 101.69,28.40 104.20,29.36 106.71,30.34 109.19,31.30 111.64,32.26 114.03,33.20 116.36,34.12 118.61,35.02 120.77,35.89 122.84,36.73 124.82,37.54 126.70,38.33 128.49,39.08 130.18,39.81 131.78,40.51 133.29,41.20 134.74,41.86 136.12,42.51 137.45,43.15 138.74,43.79 140.01,44.44 140.20,44.53 141.38,45.15 142.58,45.79 143.79,46.44 145.02,47.11 146.28,47.82 147.57,48.54 148.89,49.30 150.26,50.08 151.65,50.90 153.09,51.74 154.57,52.61 156.08,53.51 157.64,54.44 159.23,55.39 160.85,56.37 162.50,57.37 164.18,58.39 165.88,59.43 167.60,60.48 169.33,61.55 171.07,62.62 172.82,63.71 174.57,64.79 176.31,65.88 178.05,66.96 179.76,68.04 181.46,69.11 183.14,70.18 184.79,71.23 186.40,72.27 187.99,73.30 189.54,74.31 191.05,75.30 192.52,76.28 193.96,77.24 195.35,78.19 196.71,79.12 198.03,80.04 199.32,80.95 200.57,81.86 201.80,82.76 203.01,83.66 204.21,84.56 205.28,85.39 206.36,86.23 207.44,87.11 208.54,88.01 209.66,88.96 210.79,89.97 211.95,91.03 213.14,92.15 214.36,93.34 215.60,94.60 216.88,95.92 218.19,97.32 219.54,98.79 220.91,100.32 222.32,101.92 223.75,103.59 225.22,105.31 226.71,107.08 228.22,108.89 229.76,110.75 231.31,112.63 232.88,114.55 234.46,116.47 236.05,118.40 237.64,120.33 239.23,122.25 240.82,124.15 242.40,126.02 243.97,127.85 245.52,129.63 247.06,131.35 248.58,133.01 250.08,134.60 251.55,136.10 252.99,137.51 254.41,138.83 255.79,140.05 257.14,141.17 258.46,142.17 259.74,143.05 261.00,143.82 262.22,144.47 263.41,145.00 264.58,145.41 265.72,145.70 266.84,145.87 267.94,145.92 269.03,145.86 270.11,145.69 270.35,145.63 271.33,145.37 272.32,145.00 273.31,144.54 274.32,143.97 275.34,143.30 276.38,142.50 277.44,141.59 278.53,140.57 279.63,139.42 280.77,138.15 281.93,136.76 283.11,135.26 284.33,133.64 285.57,131.91 286.83,130.07 288.12,128.13 289.44,126.10 290.78,123.97 292.13,121.77 293.51,119.49 294.90,117.14 296.31,114.73 297.73,112.28 299.16,109.78 300.60,107.26 302.04,104.71 303.48,102.15 304.93,99.59 306.36,97.04 307.80,94.51 309.22,92.00 310.63,89.53 312.03,87.10 313.41,84.73 314.77,82.42 316.11,80.18 317.43,78.01 318.72,75.92 319.99,73.92 321.24,72.00 322.46,70.18 323.65,68.46 324.81,66.83 325.95,65.30 327.06,63.87 328.15,62.54 329.22,61.30 330.26,60.15 331.29,59.09 332.29,58.11 333.29,57.21 334.28,56.37 335.26,55.60 335.43,55.46 336.77,54.49 338.11,53.60 339.48,52.79 340.88,52.05 342.31,51.38 343.78,50.78 345.30,50.24 346.87,49.76 348.48,49.34 350.15,48.96 351.86,48.64 353.62,48.36 355.43,48.12 357.27,47.92 359.15,47.75 361.06,47.61 362.99,47.50 364.94,47.41 366.90,47.34 368.86,47.29 370.82,47.25 372.77,47.22 374.70,47.20 376.61,47.18 378.49,47.16 380.34,47.15 382.15,47.13 383.91,47.11 385.63,47.09 387.30,47.06 388.92,47.03 390.50,47.00 392.02,46.96 393.50,46.93 394.93,46.89 396.33,46.86 397.70,46.83 399.05,46.81 400.38,46.81 400.51,46.81 401.85,46.82 403.19,46.86 404.56,46.92 405.95,47.00 407.38,47.10 408.85,47.23 410.37,47.39 411.94,47.57 413.55,47.77 415.21,47.99 416.93,48.24 418.68,48.51 420.49,48.80 422.33,49.10 424.20,49.42 426.11,49.75 428.04,50.10 429.98,50.45 431.94,50.80 433.90,51.16 435.86,51.52 437.81,51.88 439.74,52.24 441.65,52.58 443.53,52.92 445.38,53.24 447.18,53.56 448.95,53.86 450.67,54.14 452.34,54.40 453.96,54.65 455.53,54.88 457.05,55.09 458.53,55.28 459.97,55.45 461.37,55.61 462.74,55.76 464.08,55.89 465.41,56.00 465.59,56.02 466.94,56.13 468.29,56.23 469.67,56.32 471.07,56.40 472.52,56.46 474.00,56.52 475.53,56.55 477.11,56.58 478.74,56.59 480.42,56.59 482.15,56.57 483.93,56.55 485.75,56.51 487.61,56.46 489.50,56.41 491.42,56.35 493.37,56.29 495.33,56.23 497.30,56.16 499.28,56.10 501.25,56.04 503.21,55.99 505.16,55.95 507.08,55.92 508.96,55.90 510.82,55.90 512.63,55.92 514.40,55.95 516.12,56.00 517.79,56.08 519.41,56.18 520.98,56.31 522.51,56.46 523.99,56.64 525.42,56.85 526.82,57.09 528.20,57.36 529.55,57.66 530.67,57.93 531.92,58.26 533.17,58.62 534.44,59.03 535.73,59.48 537.05,59.98 538.41,60.53 539.80,61.14 541.24,61.81 542.72,62.53 544.24,63.32 545.81,64.15 547.41,65.04 549.06,65.99 550.74,66.97 552.46,68.00 554.20,69.06 555.98,70.16 557.77,71.28 559.58,72.41 561.41,73.56 563.23,74.71 565.06,75.85 566.88,76.99 568.69,78.10 570.49,79.19 572.26,80.25 574.01,81.26 575.72,82.23 577.41,83.15 579.05,84.02 580.66,84.82 582.22,85.55 583.74,86.22 585.22,86.81 586.65,87.34 588.05,87.78 589.41,88.16 590.73,88.46 592.02,88.69 593.29,88.85 594.54,88.95 595.75,88.98 597.00,88.96 598.27,88.87 599.56,88.72 600.91,88.49 602.31,88.18 603.79,87.79 605.34,87.32 606.98,86.76 608.70,86.12 610.52,85.39 612.44,84.58 614.44,83.68 616.54,82.71 618.72,81.67 620.98,80.56 623.31,79.38 625.69,78.16 628.12,76.89 630.58,75.59 633.05,74.26 635.52,72.93 637.96,71.60 640.35,70.28 642.67,68.99 644.91,67.74 647.04,66.55 649.05,65.41 650.91,64.36 652.63,63.38 654.18,62.50 655.55,61.71 656.76,61.02 657.79,60.43 658.64,59.93 659.34,59.53 659.87,59.22 660.27,58.99 660.54,58.83 660.71,58.74 660.80,58.68 660.83,58.67 660.83,58.67 "
       style="stroke-width: 1.07; stroke: #C77CFF; stroke-linecap: butt;"
       id="polyline74" />
    <circle
       cx="75.12"
       cy="234.12"
       r="1.95"
       style="stroke-width: 0.71; stroke: #F8766D; fill: #F8766D;"
       id="circle76" />
    <circle
       cx="140.20"
       cy="169.37"
       r="1.95"
       style="stroke-width: 0.71; stroke: #F8766D; fill: #F8766D;"
       id="circle78" />
    <circle
       cx="205.28"
       cy="120.29"
       r="1.95"
       style="stroke-width: 0.71; stroke: #F8766D; fill: #F8766D;"
       id="circle80" />
    <circle
       cx="270.35"
       cy="78.82"
       r="1.95"
       style="stroke-width: 0.71; stroke: #F8766D; fill: #F8766D;"
       id="circle82" />
    <circle
       cx="335.43"
       cy="52.55"
       r="1.95"
       style="stroke-width: 0.71; stroke: #F8766D; fill: #F8766D;"
       id="circle84" />
    <circle
       cx="400.51"
       cy="56.21"
       r="1.95"
       style="stroke-width: 0.71; stroke: #F8766D; fill: #F8766D;"
       id="circle86" />
    <circle
       cx="465.59"
       cy="64.28"
       r="1.95"
       style="stroke-width: 0.71; stroke: #F8766D; fill: #F8766D;"
       id="circle88" />
    <circle
       cx="530.67"
       cy="74.39"
       r="1.95"
       style="stroke-width: 0.71; stroke: #F8766D; fill: #F8766D;"
       id="circle90" />
    <circle
       cx="595.75"
       cy="116.22"
       r="1.95"
       style="stroke-width: 0.71; stroke: #F8766D; fill: #F8766D;"
       id="circle92" />
    <circle
       cx="660.83"
       cy="94.85"
       r="1.95"
       style="stroke-width: 0.71; stroke: #F8766D; fill: #F8766D;"
       id="circle94" />
    <circle
       cx="75.12"
       cy="113.52"
       r="1.95"
       style="stroke-width: 0.71; stroke: #7CAE00; fill: #7CAE00;"
       id="circle96" />
    <circle
       cx="140.20"
       cy="273.86"
       r="1.95"
       style="stroke-width: 0.71; stroke: #7CAE00; fill: #7CAE00;"
       id="circle98" />
    <circle
       cx="205.28"
       cy="178.38"
       r="1.95"
       style="stroke-width: 0.71; stroke: #7CAE00; fill: #7CAE00;"
       id="circle100" />
    <circle
       cx="270.35"
       cy="109.13"
       r="1.95"
       style="stroke-width: 0.71; stroke: #7CAE00; fill: #7CAE00;"
       id="circle102" />
    <circle
       cx="335.43"
       cy="63.48"
       r="1.95"
       style="stroke-width: 0.71; stroke: #7CAE00; fill: #7CAE00;"
       id="circle104" />
    <circle
       cx="400.51"
       cy="61.92"
       r="1.95"
       style="stroke-width: 0.71; stroke: #7CAE00; fill: #7CAE00;"
       id="circle106" />
    <circle
       cx="465.59"
       cy="74.07"
       r="1.95"
       style="stroke-width: 0.71; stroke: #7CAE00; fill: #7CAE00;"
       id="circle108" />
    <circle
       cx="530.67"
       cy="57.80"
       r="1.95"
       style="stroke-width: 0.71; stroke: #7CAE00; fill: #7CAE00;"
       id="circle110" />
    <circle
       cx="595.75"
       cy="103.34"
       r="1.95"
       style="stroke-width: 0.71; stroke: #7CAE00; fill: #7CAE00;"
       id="circle112" />
    <circle
       cx="660.83"
       cy="82.70"
       r="1.95"
       style="stroke-width: 0.71; stroke: #7CAE00; fill: #7CAE00;"
       id="circle114" />
    <circle
       cx="75.12"
       cy="40.84"
       r="1.95"
       style="stroke-width: 0.71; stroke: #00BFC4; fill: #00BFC4;"
       id="circle116" />
    <circle
       cx="140.20"
       cy="114.90"
       r="1.95"
       style="stroke-width: 0.71; stroke: #00BFC4; fill: #00BFC4;"
       id="circle118" />
    <circle
       cx="205.28"
       cy="201.70"
       r="1.95"
       style="stroke-width: 0.71; stroke: #00BFC4; fill: #00BFC4;"
       id="circle120" />
    <circle
       cx="270.35"
       cy="111.71"
       r="1.95"
       style="stroke-width: 0.71; stroke: #00BFC4; fill: #00BFC4;"
       id="circle122" />
    <circle
       cx="335.43"
       cy="57.44"
       r="1.95"
       style="stroke-width: 0.71; stroke: #00BFC4; fill: #00BFC4;"
       id="circle124" />
    <circle
       cx="400.51"
       cy="49.42"
       r="1.95"
       style="stroke-width: 0.71; stroke: #00BFC4; fill: #00BFC4;"
       id="circle126" />
    <circle
       cx="465.59"
       cy="63.96"
       r="1.95"
       style="stroke-width: 0.71; stroke: #00BFC4; fill: #00BFC4;"
       id="circle128" />
    <circle
       cx="530.67"
       cy="56.34"
       r="1.95"
       style="stroke-width: 0.71; stroke: #00BFC4; fill: #00BFC4;"
       id="circle130" />
    <circle
       cx="595.75"
       cy="91.30"
       r="1.95"
       style="stroke-width: 0.71; stroke: #00BFC4; fill: #00BFC4;"
       id="circle132" />
    <circle
       cx="660.83"
       cy="63.84"
       r="1.95"
       style="stroke-width: 0.71; stroke: #00BFC4; fill: #00BFC4;"
       id="circle134" />
    <circle
       cx="75.12"
       cy="18.30"
       r="1.95"
       style="stroke-width: 0.71; stroke: #C77CFF; fill: #C77CFF;"
       id="circle136" />
    <circle
       cx="140.20"
       cy="44.53"
       r="1.95"
       style="stroke-width: 0.71; stroke: #C77CFF; fill: #C77CFF;"
       id="circle138" />
    <circle
       cx="205.28"
       cy="85.39"
       r="1.95"
       style="stroke-width: 0.71; stroke: #C77CFF; fill: #C77CFF;"
       id="circle140" />
    <circle
       cx="270.35"
       cy="145.63"
       r="1.95"
       style="stroke-width: 0.71; stroke: #C77CFF; fill: #C77CFF;"
       id="circle142" />
    <circle
       cx="335.43"
       cy="55.46"
       r="1.95"
       style="stroke-width: 0.71; stroke: #C77CFF; fill: #C77CFF;"
       id="circle144" />
    <circle
       cx="400.51"
       cy="46.81"
       r="1.95"
       style="stroke-width: 0.71; stroke: #C77CFF; fill: #C77CFF;"
       id="circle146" />
    <circle
       cx="465.59"
       cy="56.02"
       r="1.95"
       style="stroke-width: 0.71; stroke: #C77CFF; fill: #C77CFF;"
       id="circle148" />
    <circle
       cx="530.67"
       cy="57.93"
       r="1.95"
       style="stroke-width: 0.71; stroke: #C77CFF; fill: #C77CFF;"
       id="circle150" />
    <circle
       cx="595.75"
       cy="88.98"
       r="1.95"
       style="stroke-width: 0.71; stroke: #C77CFF; fill: #C77CFF;"
       id="circle152" />
    <circle
       cx="660.83"
       cy="58.67"
       r="1.95"
       style="stroke-width: 0.71; stroke: #C77CFF; fill: #C77CFF;"
       id="circle154" />
    <rect
       x="36.07"
       y="5.48"
       width="663.81"
       height="281.98"
       style="stroke-width: 1.07; stroke: #333333;"
       id="rect156" />
  </g>
  <g
     clip-path="url(#cpMC4wMHw3MDUuMzZ8MC4wMHwzMTguOTY=)"
     id="g262">
    <text
       x="31.14"
       y="271.86"
       text-anchor="end"
       style="font-size: 8.80px;fill: #4D4D4D; font-family: &quot;Arial&quot;;"
       textLength="12.72px"
       lengthAdjust="spacingAndGlyphs"
       id="text160">-21</text>
    <text
       x="31.14"
       y="226.25"
       text-anchor="end"
       style="font-size: 8.80px;fill: #4D4D4D; font-family: &quot;Arial&quot;;"
       textLength="12.72px"
       lengthAdjust="spacingAndGlyphs"
       id="text162">-20</text>
    <text
       x="31.14"
       y="180.63"
       text-anchor="end"
       style="font-size: 8.80px;fill: #4D4D4D; font-family: &quot;Arial&quot;;"
       textLength="12.72px"
       lengthAdjust="spacingAndGlyphs"
       id="text164">-19</text>
    <text
       x="31.14"
       y="135.02"
       text-anchor="end"
       style="font-size: 8.80px;fill: #4D4D4D; font-family: &quot;Arial&quot;;"
       textLength="12.72px"
       lengthAdjust="spacingAndGlyphs"
       id="text166">-18</text>
    <text
       x="31.14"
       y="89.40"
       text-anchor="end"
       style="font-size: 8.80px;fill: #4D4D4D; font-family: &quot;Arial&quot;;"
       textLength="12.72px"
       lengthAdjust="spacingAndGlyphs"
       id="text168">-17</text>
    <text
       x="31.14"
       y="43.79"
       text-anchor="end"
       style="font-size: 8.80px;fill: #4D4D4D; font-family: &quot;Arial&quot;;"
       textLength="12.72px"
       lengthAdjust="spacingAndGlyphs"
       id="text170">-16</text>
    <polyline
       points="33.33,268.71 36.07,268.71 "
       style="stroke-width: 1.07; stroke: #333333; stroke-linecap: butt;"
       id="polyline172" />
    <polyline
       points="33.33,223.10 36.07,223.10 "
       style="stroke-width: 1.07; stroke: #333333; stroke-linecap: butt;"
       id="polyline174" />
    <polyline
       points="33.33,177.48 36.07,177.48 "
       style="stroke-width: 1.07; stroke: #333333; stroke-linecap: butt;"
       id="polyline176" />
    <polyline
       points="33.33,131.87 36.07,131.87 "
       style="stroke-width: 1.07; stroke: #333333; stroke-linecap: butt;"
       id="polyline178" />
    <polyline
       points="33.33,86.25 36.07,86.25 "
       style="stroke-width: 1.07; stroke: #333333; stroke-linecap: butt;"
       id="polyline180" />
    <polyline
       points="33.33,40.64 36.07,40.64 "
       style="stroke-width: 1.07; stroke: #333333; stroke-linecap: butt;"
       id="polyline182" />
    <polyline
       points="75.12,290.20 75.12,287.46 "
       style="stroke-width: 1.07; stroke: #333333; stroke-linecap: butt;"
       id="polyline184" />
    <polyline
       points="140.20,290.20 140.20,287.46 "
       style="stroke-width: 1.07; stroke: #333333; stroke-linecap: butt;"
       id="polyline186" />
    <polyline
       points="205.28,290.20 205.28,287.46 "
       style="stroke-width: 1.07; stroke: #333333; stroke-linecap: butt;"
       id="polyline188" />
    <polyline
       points="270.35,290.20 270.35,287.46 "
       style="stroke-width: 1.07; stroke: #333333; stroke-linecap: butt;"
       id="polyline190" />
    <polyline
       points="335.43,290.20 335.43,287.46 "
       style="stroke-width: 1.07; stroke: #333333; stroke-linecap: butt;"
       id="polyline192" />
    <polyline
       points="400.51,290.20 400.51,287.46 "
       style="stroke-width: 1.07; stroke: #333333; stroke-linecap: butt;"
       id="polyline194" />
    <polyline
       points="465.59,290.20 465.59,287.46 "
       style="stroke-width: 1.07; stroke: #333333; stroke-linecap: butt;"
       id="polyline196" />
    <polyline
       points="530.67,290.20 530.67,287.46 "
       style="stroke-width: 1.07; stroke: #333333; stroke-linecap: butt;"
       id="polyline198" />
    <polyline
       points="595.75,290.20 595.75,287.46 "
       style="stroke-width: 1.07; stroke: #333333; stroke-linecap: butt;"
       id="polyline200" />
    <polyline
       points="660.83,290.20 660.83,287.46 "
       style="stroke-width: 1.07; stroke: #333333; stroke-linecap: butt;"
       id="polyline202" />
    <text
       x="75.12"
       y="298.70"
       text-anchor="middle"
       style="font-size: 8.80px;fill: #4D4D4D; font-family: &quot;Arial&quot;;"
       textLength="32.26px"
       lengthAdjust="spacingAndGlyphs"
       id="text204">July2FN</text>
    <text
       x="140.20"
       y="298.70"
       text-anchor="middle"
       style="font-size: 8.80px;fill: #4D4D4D; font-family: &quot;Arial&quot;;"
       textLength="32.28px"
       lengthAdjust="spacingAndGlyphs"
       id="text206">Aug1FN</text>
    <text
       x="205.28"
       y="298.70"
       text-anchor="middle"
       style="font-size: 8.80px;fill: #4D4D4D; font-family: &quot;Arial&quot;;"
       textLength="32.28px"
       lengthAdjust="spacingAndGlyphs"
       id="text208">Aug2FN</text>
    <text
       x="270.35"
       y="298.70"
       text-anchor="middle"
       style="font-size: 8.80px;fill: #4D4D4D; font-family: &quot;Arial&quot;;"
       textLength="34.73px"
       lengthAdjust="spacingAndGlyphs"
       id="text210">Sept1FN</text>
    <text
       x="335.43"
       y="298.70"
       text-anchor="middle"
       style="font-size: 8.80px;fill: #4D4D4D; font-family: &quot;Arial&quot;;"
       textLength="34.73px"
       lengthAdjust="spacingAndGlyphs"
       id="text212">Sept2FN</text>
    <text
       x="400.51"
       y="298.70"
       text-anchor="middle"
       style="font-size: 8.80px;fill: #4D4D4D; font-family: &quot;Arial&quot;;"
       textLength="30.31px"
       lengthAdjust="spacingAndGlyphs"
       id="text214">Oct1FN</text>
    <text
       x="465.59"
       y="298.70"
       text-anchor="middle"
       style="font-size: 8.80px;fill: #4D4D4D; font-family: &quot;Arial&quot;;"
       textLength="30.31px"
       lengthAdjust="spacingAndGlyphs"
       id="text216">Oct2FN</text>
    <text
       x="530.67"
       y="298.70"
       text-anchor="middle"
       style="font-size: 8.80px;fill: #4D4D4D; font-family: &quot;Arial&quot;;"
       textLength="32.26px"
       lengthAdjust="spacingAndGlyphs"
       id="text218">Nov1FN</text>
    <text
       x="595.75"
       y="298.70"
       text-anchor="middle"
       style="font-size: 8.80px;fill: #4D4D4D; font-family: &quot;Arial&quot;;"
       textLength="30.81px"
       lengthAdjust="spacingAndGlyphs"
       id="text220">Nov2Fn</text>
    <text
       x="660.83"
       y="298.70"
       text-anchor="middle"
       style="font-size: 8.80px;fill: #4D4D4D; font-family: &quot;Arial&quot;;"
       textLength="30.81px"
       lengthAdjust="spacingAndGlyphs"
       id="text222">Dec1Fn</text>
    <text
       transform="translate(13.36,146.47) rotate(-90)"
       text-anchor="middle"
       style="font-size: 11.00px; font-family: &quot;Arial&quot;;"
       textLength="101.33px"
       lengthAdjust="spacingAndGlyphs"
       id="text224">Average Backscatter</text>
    <rect
       x="572.63"
       y="183.19"
       width="81.90"
       height="95.75"
       style="stroke-width: 1.07; stroke: none; fill: #FFFFFF;"
       id="rect226" />
    <text
       x="578.11"
       y="197.71"
       style="font-size: 11.00px; font-family: &quot;Arial&quot;;"
       textLength="70.94px"
       lengthAdjust="spacingAndGlyphs"
       id="text228">Sowing Period</text>
    <rect
       x="578.11"
       y="204.34"
       width="17.28"
       height="17.28"
       style="stroke-width: 1.07; stroke: none; fill: #FFFFFF;"
       id="rect230" />
    <line
       x1="579.84"
       y1="212.98"
       x2="593.67"
       y2="212.98"
       style="stroke-width: 1.07; stroke: #F8766D; stroke-linecap: butt;"
       id="line232" />
    <circle
       cx="586.75"
       cy="212.98"
       r="1.95"
       style="stroke-width: 0.71; stroke: #F8766D; fill: #F8766D;"
       id="circle234" />
    <rect
       x="578.11"
       y="221.62"
       width="17.28"
       height="17.28"
       style="stroke-width: 1.07; stroke: none; fill: #FFFFFF;"
       id="rect236" />
    <line
       x1="579.84"
       y1="230.26"
       x2="593.67"
       y2="230.26"
       style="stroke-width: 1.07; stroke: #7CAE00; stroke-linecap: butt;"
       id="line238" />
    <circle
       cx="586.75"
       cy="230.26"
       r="1.95"
       style="stroke-width: 0.71; stroke: #7CAE00; fill: #7CAE00;"
       id="circle240" />
    <rect
       x="578.11"
       y="238.90"
       width="17.28"
       height="17.28"
       style="stroke-width: 1.07; stroke: none; fill: #FFFFFF;"
       id="rect242" />
    <line
       x1="579.84"
       y1="247.54"
       x2="593.67"
       y2="247.54"
       style="stroke-width: 1.07; stroke: #00BFC4; stroke-linecap: butt;"
       id="line244" />
    <circle
       cx="586.75"
       cy="247.54"
       r="1.95"
       style="stroke-width: 0.71; stroke: #00BFC4; fill: #00BFC4;"
       id="circle246" />
    <rect
       x="578.11"
       y="256.18"
       width="17.28"
       height="17.28"
       style="stroke-width: 1.07; stroke: none; fill: #FFFFFF;"
       id="rect248" />
    <line
       x1="579.84"
       y1="264.82"
       x2="593.67"
       y2="264.82"
       style="stroke-width: 1.07; stroke: #C77CFF; stroke-linecap: butt;"
       id="line250" />
    <circle
       cx="586.75"
       cy="264.82"
       r="1.95"
       style="stroke-width: 0.71; stroke: #C77CFF; fill: #C77CFF;"
       id="circle252" />
    <text
       x="600.87"
       y="216.13"
       style="font-size: 8.80px; font-family: &quot;Arial&quot;;"
       textLength="32.26px"
       lengthAdjust="spacingAndGlyphs"
       id="text254">July2FN</text>
    <text
       x="600.87"
       y="233.41"
       style="font-size: 8.80px; font-family: &quot;Arial&quot;;"
       textLength="44.02px"
       lengthAdjust="spacingAndGlyphs"
       id="text256">August1FN</text>
    <text
       x="600.87"
       y="250.69"
       style="font-size: 8.80px; font-family: &quot;Arial&quot;;"
       textLength="44.02px"
       lengthAdjust="spacingAndGlyphs"
       id="text258">August2FN</text>
    <text
       x="600.87"
       y="267.97"
       style="font-size: 8.80px; font-family: &quot;Arial&quot;;"
       textLength="34.73px"
       lengthAdjust="spacingAndGlyphs"
       id="text260">Sept1FN</text>
  </g>
  <path
     style="fill:#e5e5e5;stroke:#060606;stroke-width:1.05533;marker-end:url(#Arrow1L);stroke-dasharray:2.11066007,1.05533004;stroke-dashoffset:0"
     d="M 171.08396,271.02732 283.5558,142.91996"
     id="path603"
     inkscape:path-effect="#path-effect605"
     inkscape:original-d="m 171.08396,271.02732 c 37.4913,-42.70171 74.9819,-85.40417 112.47184,-128.10736" />
  <path
     style="fill:#e5e5e5;stroke:#060606;stroke-width:0.901817;stroke-dasharray:1.70405, 0.852027;stroke-dashoffset:0;marker-end:url(#Arrow2)"
     d="m 465.33849,22.875514 0.535,21.813283"
     id="path1402"
     inkscape:path-effect="#path-effect1404"
     inkscape:original-d="m 465.33849,22.875514 c 0.17908,7.271583 0.35742,14.542678 0.535,21.813283" />
  <path
     style="fill:#e5e5e5;stroke:#060606;stroke-width:1.13437;stroke-dasharray:2.14349, 1.07174;stroke-dashoffset:0;marker-end:url(#marker1478)"
     d="m 595.1109,42.503677 0.64239,33.312995"
     id="path1460"
     inkscape:path-effect="#path-effect1462"
     inkscape:original-d="m 595.1109,42.503677 c 0.21503,11.104976 0.42917,22.209307 0.64239,33.312995" />
  <text
     xml:space="preserve"
     style="font-size:15.84px;font-family:'Comic Sans MS';-inkscape-font-specification:'Comic Sans MS, Normal';fill:#e5e5e5;stroke:#060606;stroke-width:1.117;stroke-dasharray:2.11066, 1.05533;stroke-dashoffset:0"
     x="601.91431"
     y="34.383408"
     id="text1602"><tspan
       sodipodi:role="line"
       id="tspan1600"
       style="stroke-width:1.117"
       x="601.91431"
       y="48.146297" /></text>
</svg>
